<svg xmlns="http://www.w3.org/2000/svg" xmlns:xlink="http://www.w3.org/1999/xlink" viewBox="0 0 100 125" version="1.1" x="0px" y="0px"><title>poker</title><desc>Created with Sketch.</desc><g stroke="none" stroke-width="1" fill="none" fill-rule="evenodd"><g fill="#000000"><path d="M65.1284,8.9549 C63.4654,7.9649 61.9554,10.5569 63.6144,11.5449 C76.6174,19.2919 86.7804,32.9739 89.5554,47.9909 C92.5524,64.2049 83.9744,80.9389 68.9834,87.8519 C61.1384,91.4689 52.8234,91.7879 44.3854,90.5889 C36.1714,89.4229 27.5574,87.7579 21.1914,82.0339 C8.5374,70.6579 8.1284,50.8109 12.2244,35.4849 C17.0384,17.4749 41.6134,2.8929 59.4094,11.4409 C61.1424,12.2729 62.6654,9.6869 60.9244,8.8499 C44.6944,1.0549 25.0904,10.3449 14.7354,23.4789 C8.9834,30.7749 7.5264,40.7869 7.0794,49.8219 C6.6164,59.1449 8.1284,68.7809 13.0774,76.8339 C17.4954,84.0229 24.0864,88.8359 32.1474,91.1899 C41.0044,93.7759 51.3284,95.3259 60.4694,93.6839 C77.4894,90.6269 90.7594,76.5469 92.8524,59.4039 C95.3024,39.3249 81.8884,18.9389 65.1284,8.9549"/><path d="M32.6031,38.8845 C32.7801,38.7365 32.9581,38.5875 33.1351,38.4395 C33.7581,37.9195 33.6721,36.8555 33.1351,36.3185 C32.5201,35.7025 31.6381,35.7975 31.0141,36.3185 C30.8371,36.4665 30.6591,36.6145 30.4821,36.7635 C29.8591,37.2825 29.9451,38.3475 30.4821,38.8845 C31.0971,39.5005 31.9791,39.4055 32.6031,38.8845"/><path d="M63.4414,40.4177 C63.5224,40.4247 63.6044,40.4327 63.6854,40.4397 C64.4694,40.5097 65.2194,39.6997 65.1854,38.9397 C65.1464,38.0667 64.5254,37.5147 63.6854,37.4397 C63.6044,37.4327 63.5224,37.4247 63.4414,37.4177 C62.6574,37.3477 61.9074,38.1577 61.9414,38.9177 C61.9804,39.7907 62.6014,40.3427 63.4414,40.4177"/><path d="M71.8798,60.5933 C56.2408,63.8573 40.3508,64.7553 24.4428,63.2633 C22.5168,63.0823 22.2618,66.0723 24.1848,66.2523 C40.3408,67.7683 56.5138,66.8643 72.3988,63.5493 C74.2878,63.1543 73.7718,60.1983 71.8798,60.5933"/></g></g><text x="0" y="115" fill="#000000" font-size="5px" font-weight="bold" font-family="'Helvetica Neue', Helvetica, Arial-Unicode, Arial, Sans-serif">Created by Gyan Lakhwani</text><text x="0" y="120" fill="#000000" font-size="5px" font-weight="bold" font-family="'Helvetica Neue', Helvetica, Arial-Unicode, Arial, Sans-serif">from the Noun Project</text></svg>